<svg width="278" height="186" viewBox="0 0 278 186" fill="none" xmlns="http://www.w3.org/2000/svg">
<path d="M104.152 4.00957C101.285 1.4283 97.5627 0 93.7043 0C89.8459 0 86.1241 1.4283 83.2563 4.00957L0 78.9418V160.152C0 166.779 2.63264 173.135 7.31876 177.821C12.0049 182.507 18.3606 185.14 24.9878 185.14H162.421C169.048 185.14 175.404 182.507 180.09 177.821C184.776 173.135 187.409 166.779 187.409 160.152V78.9418L104.152 4.00957ZM171.791 160.129C171.791 162.614 170.804 164.997 169.047 166.755C167.289 168.512 164.906 169.499 162.421 169.499H132.748H126.911H118.307H105.401H89.2682C89.2682 169.499 74.7486 169.499 67.7578 169.499H54.6608H24.9878C22.5026 169.499 20.1192 168.512 18.3619 166.755C16.6046 164.997 15.6174 162.614 15.6174 160.129V85.8915L93.7043 15.6133L171.791 85.8915V160.129Z" fill="white"/>
<path d="M194.152 4.00957C191.285 1.4283 187.563 0 183.704 0C179.846 0 176.124 1.4283 173.256 4.00957L90 78.9418V160.152C90 166.779 92.6326 173.135 97.3188 177.821C102.005 182.507 108.361 185.14 114.988 185.14H252.421C259.048 185.14 265.404 182.507 270.09 177.821C274.776 173.135 277.409 166.779 277.409 160.152V78.9418L194.152 4.00957ZM261.791 160.129C261.791 162.614 260.804 164.997 259.047 166.755C257.289 168.512 254.906 169.499 252.421 169.499H222.748H216.911H208.307H195.401H179.268C179.268 169.499 164.749 169.499 157.758 169.499H144.661H114.988C112.503 169.499 110.119 168.512 108.362 166.755C106.605 164.997 105.617 162.614 105.617 160.129V85.8915L183.704 15.6133L261.791 85.8915V160.129Z" fill="white"/>
</svg>
