<svg width="408" height="408" viewBox="0 0 408 408" fill="none" xmlns="http://www.w3.org/2000/svg">
<rect width="408" height="408" rx="40" fill="#CAA05C"/>
<path d="M169.152 115.01C166.285 112.428 162.563 111 158.704 111C154.846 111 151.124 112.428 148.256 115.01L65 189.942V271.152C65 277.779 67.6326 284.135 72.3188 288.821C77.0049 293.507 83.3606 296.14 89.9878 296.14H227.421C234.048 296.14 240.404 293.507 245.09 288.821C249.776 284.135 252.409 277.779 252.409 271.152V189.942L169.152 115.01ZM236.791 271.129C236.791 273.614 235.804 275.997 234.047 277.755C232.289 279.512 229.906 280.499 227.421 280.499H197.748H191.911H183.307H170.401H154.268C154.268 280.499 139.749 280.499 132.758 280.499H119.661H89.9878C87.5026 280.499 85.1192 279.512 83.3619 277.755C81.6046 275.997 80.6174 273.614 80.6174 271.129V196.892L158.704 126.613L236.791 196.892V271.129Z" fill="white"/>
<path d="M259.152 115.01C256.285 112.428 252.563 111 248.704 111C244.846 111 241.124 112.428 238.256 115.01L155 189.942V271.152C155 277.779 157.633 284.135 162.319 288.821C167.005 293.507 173.361 296.14 179.988 296.14H317.421C324.048 296.14 330.404 293.507 335.09 288.821C339.776 284.135 342.409 277.779 342.409 271.152V189.942L259.152 115.01ZM326.791 271.129C326.791 273.614 325.804 275.997 324.047 277.755C322.289 279.512 319.906 280.499 317.421 280.499H287.748H281.911H273.307H260.401H244.268C244.268 280.499 229.749 280.499 222.758 280.499H209.661H179.988C177.503 280.499 175.119 279.512 173.362 277.755C171.605 275.997 170.617 273.614 170.617 271.129V196.892L248.704 126.613L326.791 196.892V271.129Z" fill="white"/>
</svg>
